# 3ds Max Wavefront OBJ Exporter v0.97b - (c)2007 guruware
# File Created: 03.11.2019 20:07:29

mtllib Void_Spawn.mtl

#
# object VoidMonsterSpawn
#

v  -0.0000 6.9172 0.0000
v  -0.0000 6.9172 -4.8280
v  -0.9419 6.9172 -4.7352
v  -1.8476 6.9172 -4.4605
v  -2.6823 6.9172 -4.0143
v  -3.4139 6.9172 -3.4139
v  -4.0144 6.9172 -2.6823
v  -4.4605 6.9172 -1.8476
v  -4.7353 6.9172 -0.9419
v  -4.8280 6.9172 0.0000
v  -4.7353 6.9172 0.9419
v  -4.4605 6.9172 1.8476
v  -4.0144 6.9172 2.6823
v  -3.4139 6.9172 3.4139
v  -2.6823 6.9172 4.0144
v  -1.8476 6.9172 4.4605
v  -0.9419 6.9172 4.7353
v  0.0000 6.9172 4.8280
v  0.9419 6.9172 4.7353
v  1.8476 6.9172 4.4605
v  2.6823 6.9172 4.0144
v  3.4139 6.9172 3.4139
v  4.0144 6.9172 2.6823
v  4.4605 6.9172 1.8476
v  4.7353 6.9172 0.9419
v  4.8280 6.9172 0.0000
v  4.7353 6.9172 -0.9419
v  4.4605 6.9172 -1.8476
v  4.0144 6.9172 -2.6823
v  3.4139 6.9172 -3.4139
v  2.6823 6.9172 -4.0143
v  1.8476 6.9172 -4.4605
v  0.9419 6.9172 -4.7352
v  -0.0000 6.9172 -9.4705
v  -1.8476 6.9172 -9.2885
v  -3.6242 6.9172 -8.7496
v  -5.2615 6.9172 -7.8744
v  -6.6967 6.9172 -6.6967
v  -7.8744 6.9172 -5.2615
v  -8.7496 6.9172 -3.6242
v  -9.2885 6.9172 -1.8476
v  -9.4705 6.9172 0.0000
v  -9.2885 6.9172 1.8476
v  -8.7496 6.9172 3.6242
v  -7.8744 6.9172 5.2616
v  -6.6967 6.9172 6.6967
v  -5.2615 6.9172 7.8745
v  -3.6242 6.9172 8.7496
v  -1.8476 6.9172 9.2886
v  0.0000 6.9172 9.4705
v  1.8476 6.9172 9.2886
v  3.6242 6.9172 8.7496
v  5.2615 6.9172 7.8745
v  6.6967 6.9172 6.6967
v  7.8745 6.9172 5.2615
v  8.7496 6.9172 3.6242
v  9.2885 6.9172 1.8476
v  9.4705 6.9172 -0.0000
v  9.2885 6.9172 -1.8476
v  8.7496 6.9172 -3.6242
v  7.8744 6.9172 -5.2615
v  6.6967 6.9172 -6.6967
v  5.2615 6.9172 -7.8744
v  3.6242 6.9172 -8.7496
v  1.8476 6.9172 -9.2885
v  -0.0000 6.9172 -13.7490
v  -2.6823 6.9172 -13.4849
v  -5.2615 6.9172 -12.7025
v  -7.6386 6.9172 -11.4319
v  -9.7221 6.9172 -9.7220
v  -11.4319 6.9172 -7.6386
v  -12.7025 6.9172 -5.2615
v  -13.4849 6.9172 -2.6823
v  -13.7491 6.9172 0.0000
v  -13.4849 6.9172 2.6823
v  -12.7025 6.9172 5.2616
v  -11.4319 6.9172 7.6386
v  -9.7220 6.9172 9.7221
v  -7.6386 6.9172 11.4319
v  -5.2615 6.9172 12.7025
v  -2.6823 6.9172 13.4849
v  0.0000 6.9172 13.7491
v  2.6823 6.9172 13.4849
v  5.2615 6.9172 12.7025
v  7.6386 6.9172 11.4319
v  9.7221 6.9172 9.7221
v  11.4319 6.9172 7.6386
v  12.7025 6.9172 5.2615
v  13.4849 6.9172 2.6823
v  13.7491 6.9172 -0.0000
v  13.4849 6.9172 -2.6823
v  12.7025 6.9172 -5.2615
v  11.4319 6.9172 -7.6386
v  9.7220 6.9172 -9.7221
v  7.6385 6.9172 -11.4319
v  5.2615 6.9172 -12.7025
v  2.6823 6.9172 -13.4849
v  -0.0000 6.9172 -17.4992
v  -3.4139 6.9172 -17.1630
v  -6.6967 6.9172 -16.1672
v  -9.7221 6.9172 -14.5501
v  -12.3738 6.9172 -12.3738
v  -14.5501 6.9172 -9.7220
v  -16.1672 6.9172 -6.6966
v  -17.1630 6.9172 -3.4139
v  -17.4992 6.9172 0.0000
v  -17.1630 6.9172 3.4140
v  -16.1672 6.9172 6.6967
v  -14.5501 6.9172 9.7221
v  -12.3738 6.9172 12.3738
v  -9.7220 6.9172 14.5501
v  -6.6967 6.9172 16.1672
v  -3.4139 6.9172 17.1630
v  0.0000 6.9172 17.4992
v  3.4139 6.9172 17.1630
v  6.6967 6.9172 16.1672
v  9.7221 6.9172 14.5501
v  12.3738 6.9172 12.3738
v  14.5501 6.9172 9.7220
v  16.1672 6.9172 6.6967
v  17.1630 6.9172 3.4139
v  17.4992 6.9172 -0.0000
v  17.1630 6.9172 -3.4139
v  16.1672 6.9172 -6.6967
v  14.5501 6.9172 -9.7221
v  12.3738 6.9172 -12.3738
v  9.7220 6.9172 -14.5501
v  6.6966 6.9172 -16.1672
v  3.4139 6.9172 -17.1630
v  -0.0000 6.9172 -20.5769
v  -4.0144 6.9172 -20.1815
v  -7.8744 6.9172 -19.0106
v  -11.4319 6.9172 -17.1091
v  -14.5501 6.9172 -14.5501
v  -17.1091 6.9172 -11.4319
v  -19.0106 6.9172 -7.8744
v  -20.1815 6.9172 -4.0143
v  -20.5769 6.9172 0.0000
v  -20.1815 6.9172 4.0144
v  -19.0106 6.9172 7.8745
v  -17.1091 6.9172 11.4319
v  -14.5501 6.9172 14.5501
v  -11.4319 6.9172 17.1091
v  -7.8744 6.9172 19.0106
v  -4.0143 6.9172 20.1816
v  0.0000 6.9172 20.5769
v  4.0144 6.9172 20.1815
v  7.8745 6.9172 19.0106
v  11.4319 6.9172 17.1091
v  14.5501 6.9172 14.5501
v  17.1091 6.9172 11.4319
v  19.0106 6.9172 7.8744
v  20.1815 6.9172 4.0143
v  20.5769 6.9172 -0.0000
v  20.1815 6.9172 -4.0144
v  19.0106 6.9172 -7.8745
v  17.1091 6.9172 -11.4319
v  14.5500 6.9172 -14.5501
v  11.4319 6.9172 -17.1091
v  7.8744 6.9172 -19.0106
v  4.0143 6.9172 -20.1815
v  -0.0000 6.9172 -22.8638
v  -4.4605 6.9172 -22.4245
v  -8.7496 6.9172 -21.1234
v  -12.7025 6.9172 -19.0106
v  -16.1672 6.9172 -16.1672
v  -19.0106 6.9172 -12.7025
v  -21.1234 6.9172 -8.7496
v  -22.4245 6.9172 -4.4605
v  -22.8638 6.9172 0.0000
v  -22.4245 6.9172 4.4605
v  -21.1234 6.9172 8.7496
v  -19.0106 6.9172 12.7025
v  -16.1672 6.9172 16.1672
v  -12.7025 6.9172 19.0106
v  -8.7496 6.9172 21.1235
v  -4.4605 6.9172 22.4245
v  0.0000 6.9172 22.8639
v  4.4605 6.9172 22.4245
v  8.7496 6.9172 21.1234
v  12.7025 6.9172 19.0106
v  16.1672 6.9172 16.1672
v  19.0106 6.9172 12.7025
v  21.1235 6.9172 8.7496
v  22.4245 6.9172 4.4605
v  22.8638 6.9172 -0.0000
v  22.4245 6.9172 -4.4605
v  21.1234 6.9172 -8.7496
v  19.0106 6.9172 -12.7025
v  16.1671 6.9172 -16.1672
v  12.7024 6.9172 -19.0106
v  8.7496 6.9172 -21.1234
v  4.4605 6.9172 -22.4245
v  -0.0000 6.9172 -24.7476
v  -4.8280 6.9172 -24.2721
v  -9.4705 6.9172 -22.8638
v  -13.7491 6.9172 -20.5769
v  -17.4992 6.9172 -17.4992
v  -20.5769 6.9172 -13.7490
v  -22.8638 6.9172 -9.4705
v  -24.2721 6.9172 -4.8280
v  -24.7476 6.9172 0.0000
v  -24.2721 6.9172 4.8280
v  -22.8638 6.9172 9.4705
v  -20.5769 6.9172 13.7491
v  -17.4992 6.9172 17.4993
v  -13.7490 6.9172 20.5769
v  -9.4705 6.9172 22.8639
v  -4.8280 6.9172 24.2721
v  0.0000 6.9172 24.7477
v  4.8281 6.9172 24.2721
v  9.4705 6.9172 22.8638
v  13.7491 6.9172 20.5769
v  17.4992 6.9172 17.4992
v  20.5769 6.9172 13.7490
v  22.8639 6.9172 9.4705
v  24.2721 6.9172 4.8280
v  24.7476 6.9172 -0.0000
v  24.2721 6.9172 -4.8281
v  22.8638 6.9172 -9.4705
v  20.5769 6.9172 -13.7491
v  17.4992 6.9172 -17.4993
v  13.7490 6.9172 -20.5769
v  9.4705 6.9172 -22.8639
v  4.8280 6.9172 -24.2721
# 225 vertices

vn 0.0000 1.0000 -0.0000
# 1 vertex normals

vt 0.5000 0.5000 1.5180
vt 0.5000 0.5975 1.5180
vt 0.4810 0.5957 1.5180
vt 0.4627 0.5901 1.5180
vt 0.4458 0.5811 1.5180
vt 0.4310 0.5690 1.5180
vt 0.4189 0.5542 1.5180
vt 0.4099 0.5373 1.5180
vt 0.4043 0.5190 1.5180
vt 0.4025 0.5000 1.5180
vt 0.4043 0.4810 1.5180
vt 0.4099 0.4627 1.5180
vt 0.4189 0.4458 1.5180
vt 0.4310 0.4310 1.5180
vt 0.4458 0.4189 1.5180
vt 0.4627 0.4099 1.5180
vt 0.4810 0.4043 1.5180
vt 0.5000 0.4025 1.5180
vt 0.5190 0.4043 1.5180
vt 0.5373 0.4099 1.5180
vt 0.5542 0.4189 1.5180
vt 0.5690 0.4310 1.5180
vt 0.5811 0.4458 1.5180
vt 0.5901 0.4627 1.5180
vt 0.5957 0.4810 1.5180
vt 0.5975 0.5000 1.5180
vt 0.5957 0.5190 1.5180
vt 0.5901 0.5373 1.5180
vt 0.5811 0.5542 1.5180
vt 0.5690 0.5690 1.5180
vt 0.5542 0.5811 1.5180
vt 0.5373 0.5901 1.5180
vt 0.5190 0.5957 1.5180
vt 0.5000 0.6913 1.5180
vt 0.4627 0.6877 1.5180
vt 0.4268 0.6768 1.5180
vt 0.3937 0.6591 1.5180
vt 0.3647 0.6353 1.5180
vt 0.3409 0.6063 1.5180
vt 0.3232 0.5732 1.5180
vt 0.3123 0.5373 1.5180
vt 0.3087 0.5000 1.5180
vt 0.3123 0.4627 1.5180
vt 0.3232 0.4268 1.5180
vt 0.3409 0.3937 1.5180
vt 0.3647 0.3647 1.5180
vt 0.3937 0.3409 1.5180
vt 0.4268 0.3232 1.5180
vt 0.4627 0.3123 1.5180
vt 0.5000 0.3087 1.5180
vt 0.5373 0.3123 1.5180
vt 0.5732 0.3232 1.5180
vt 0.6063 0.3409 1.5180
vt 0.6353 0.3647 1.5180
vt 0.6591 0.3937 1.5180
vt 0.6768 0.4268 1.5180
vt 0.6877 0.4627 1.5180
vt 0.6913 0.5000 1.5180
vt 0.6877 0.5373 1.5180
vt 0.6768 0.5732 1.5180
vt 0.6591 0.6063 1.5180
vt 0.6353 0.6353 1.5180
vt 0.6063 0.6591 1.5180
vt 0.5732 0.6768 1.5180
vt 0.5373 0.6877 1.5180
vt 0.5000 0.7778 1.5180
vt 0.4458 0.7724 1.5180
vt 0.3937 0.7566 1.5180
vt 0.3457 0.7310 1.5180
vt 0.3036 0.6964 1.5180
vt 0.2690 0.6543 1.5180
vt 0.2434 0.6063 1.5180
vt 0.2276 0.5542 1.5180
vt 0.2222 0.5000 1.5180
vt 0.2276 0.4458 1.5180
vt 0.2434 0.3937 1.5180
vt 0.2690 0.3457 1.5180
vt 0.3036 0.3036 1.5180
vt 0.3457 0.2690 1.5180
vt 0.3937 0.2434 1.5180
vt 0.4458 0.2276 1.5180
vt 0.5000 0.2222 1.5180
vt 0.5542 0.2276 1.5180
vt 0.6063 0.2434 1.5180
vt 0.6543 0.2690 1.5180
vt 0.6964 0.3036 1.5180
vt 0.7310 0.3457 1.5180
vt 0.7566 0.3937 1.5180
vt 0.7724 0.4458 1.5180
vt 0.7778 0.5000 1.5180
vt 0.7724 0.5542 1.5180
vt 0.7566 0.6063 1.5180
vt 0.7310 0.6543 1.5180
vt 0.6964 0.6964 1.5180
vt 0.6543 0.7310 1.5180
vt 0.6063 0.7566 1.5180
vt 0.5542 0.7724 1.5180
vt 0.5000 0.8536 1.5180
vt 0.4310 0.8468 1.5180
vt 0.3647 0.8266 1.5180
vt 0.3036 0.7940 1.5180
vt 0.2500 0.7500 1.5180
vt 0.2060 0.6964 1.5180
vt 0.1734 0.6353 1.5180
vt 0.1532 0.5690 1.5180
vt 0.1464 0.5000 1.5180
vt 0.1532 0.4310 1.5180
vt 0.1734 0.3647 1.5180
vt 0.2060 0.3036 1.5180
vt 0.2500 0.2500 1.5180
vt 0.3036 0.2060 1.5180
vt 0.3647 0.1734 1.5180
vt 0.4310 0.1532 1.5180
vt 0.5000 0.1464 1.5180
vt 0.5690 0.1532 1.5180
vt 0.6353 0.1734 1.5180
vt 0.6964 0.2060 1.5180
vt 0.7500 0.2500 1.5180
vt 0.7940 0.3036 1.5180
vt 0.8266 0.3647 1.5180
vt 0.8468 0.4310 1.5180
vt 0.8536 0.5000 1.5180
vt 0.8468 0.5690 1.5180
vt 0.8266 0.6353 1.5180
vt 0.7940 0.6964 1.5180
vt 0.7500 0.7500 1.5180
vt 0.6964 0.7940 1.5180
vt 0.6353 0.8266 1.5180
vt 0.5690 0.8468 1.5180
vt 0.5000 0.9157 1.5180
vt 0.4189 0.9077 1.5180
vt 0.3409 0.8841 1.5180
vt 0.2690 0.8457 1.5180
vt 0.2060 0.7940 1.5180
vt 0.1543 0.7310 1.5180
vt 0.1159 0.6591 1.5180
vt 0.0923 0.5811 1.5180
vt 0.0843 0.5000 1.5180
vt 0.0923 0.4189 1.5180
vt 0.1159 0.3409 1.5180
vt 0.1543 0.2690 1.5180
vt 0.2060 0.2060 1.5180
vt 0.2690 0.1543 1.5180
vt 0.3409 0.1159 1.5180
vt 0.4189 0.0923 1.5180
vt 0.5000 0.0843 1.5180
vt 0.5811 0.0923 1.5180
vt 0.6591 0.1159 1.5180
vt 0.7310 0.1543 1.5180
vt 0.7940 0.2060 1.5180
vt 0.8457 0.2690 1.5180
vt 0.8841 0.3409 1.5180
vt 0.9077 0.4189 1.5180
vt 0.9157 0.5000 1.5180
vt 0.9077 0.5811 1.5180
vt 0.8841 0.6591 1.5180
vt 0.8457 0.7310 1.5180
vt 0.7940 0.7940 1.5180
vt 0.7310 0.8457 1.5180
vt 0.6591 0.8841 1.5180
vt 0.5811 0.9077 1.5180
vt 0.5000 0.9619 1.5180
vt 0.4099 0.9531 1.5180
vt 0.3232 0.9268 1.5180
vt 0.2434 0.8841 1.5180
vt 0.1734 0.8266 1.5180
vt 0.1159 0.7566 1.5180
vt 0.0732 0.6768 1.5180
vt 0.0469 0.5901 1.5180
vt 0.0381 0.5000 1.5180
vt 0.0469 0.4099 1.5180
vt 0.0732 0.3232 1.5180
vt 0.1159 0.2434 1.5180
vt 0.1734 0.1734 1.5180
vt 0.2434 0.1159 1.5180
vt 0.3232 0.0732 1.5180
vt 0.4099 0.0469 1.5180
vt 0.5000 0.0381 1.5180
vt 0.5901 0.0469 1.5180
vt 0.6768 0.0732 1.5180
vt 0.7566 0.1159 1.5180
vt 0.8266 0.1734 1.5180
vt 0.8841 0.2434 1.5180
vt 0.9268 0.3232 1.5180
vt 0.9531 0.4099 1.5180
vt 0.9619 0.5000 1.5180
vt 0.9531 0.5901 1.5180
vt 0.9268 0.6768 1.5180
vt 0.8841 0.7566 1.5180
vt 0.8266 0.8266 1.5180
vt 0.7566 0.8841 1.5180
vt 0.6768 0.9268 1.5180
vt 0.5901 0.9531 1.5180
vt 0.5000 1.0000 1.5180
vt 0.4025 0.9904 1.5180
vt 0.3087 0.9619 1.5180
vt 0.2222 0.9157 1.5180
vt 0.1464 0.8536 1.5180
vt 0.0843 0.7778 1.5180
vt 0.0381 0.6913 1.5180
vt 0.0096 0.5975 1.5180
vt 0.0000 0.5000 1.5180
vt 0.0096 0.4025 1.5180
vt 0.0381 0.3087 1.5180
vt 0.0843 0.2222 1.5180
vt 0.1464 0.1464 1.5180
vt 0.2222 0.0843 1.5180
vt 0.3087 0.0381 1.5180
vt 0.4025 0.0096 1.5180
vt 0.5000 -0.0000 1.5180
vt 0.5975 0.0096 1.5180
vt 0.6913 0.0381 1.5180
vt 0.7778 0.0843 1.5180
vt 0.8536 0.1464 1.5180
vt 0.9157 0.2222 1.5180
vt 0.9619 0.3087 1.5180
vt 0.9904 0.4025 1.5180
vt 1.0000 0.5000 1.5180
vt 0.9904 0.5975 1.5180
vt 0.9619 0.6913 1.5180
vt 0.9157 0.7778 1.5180
vt 0.8536 0.8536 1.5180
vt 0.7778 0.9157 1.5180
vt 0.6913 0.9619 1.5180
vt 0.5975 0.9904 1.5180
# 225 texture coords

o VoidMonsterSpawn
g VoidMonsterSpawn
usemtl wire_141007058
s 1
f 1/1/1 2/2/1 3/3/1 
f 1/1/1 3/3/1 4/4/1 
f 1/1/1 4/4/1 5/5/1 
f 1/1/1 5/5/1 6/6/1 
f 1/1/1 6/6/1 7/7/1 
f 1/1/1 7/7/1 8/8/1 
f 1/1/1 8/8/1 9/9/1 
f 1/1/1 9/9/1 10/10/1 
f 1/1/1 10/10/1 11/11/1 
f 1/1/1 11/11/1 12/12/1 
f 1/1/1 12/12/1 13/13/1 
f 1/1/1 13/13/1 14/14/1 
f 1/1/1 14/14/1 15/15/1 
f 1/1/1 15/15/1 16/16/1 
f 1/1/1 16/16/1 17/17/1 
f 1/1/1 17/17/1 18/18/1 
f 1/1/1 18/18/1 19/19/1 
f 1/1/1 19/19/1 20/20/1 
f 1/1/1 20/20/1 21/21/1 
f 1/1/1 21/21/1 22/22/1 
f 1/1/1 22/22/1 23/23/1 
f 1/1/1 23/23/1 24/24/1 
f 1/1/1 24/24/1 25/25/1 
f 1/1/1 25/25/1 26/26/1 
f 1/1/1 26/26/1 27/27/1 
f 1/1/1 27/27/1 28/28/1 
f 1/1/1 28/28/1 29/29/1 
f 1/1/1 29/29/1 30/30/1 
f 1/1/1 30/30/1 31/31/1 
f 1/1/1 31/31/1 32/32/1 
f 1/1/1 32/32/1 33/33/1 
f 1/1/1 33/33/1 2/2/1 
f 2/2/1 34/34/1 35/35/1 3/3/1 
f 3/3/1 35/35/1 36/36/1 4/4/1 
f 4/4/1 36/36/1 37/37/1 5/5/1 
f 5/5/1 37/37/1 38/38/1 6/6/1 
f 6/6/1 38/38/1 39/39/1 7/7/1 
f 7/7/1 39/39/1 40/40/1 8/8/1 
f 8/8/1 40/40/1 41/41/1 9/9/1 
f 9/9/1 41/41/1 42/42/1 10/10/1 
f 10/10/1 42/42/1 43/43/1 11/11/1 
f 11/11/1 43/43/1 44/44/1 12/12/1 
f 12/12/1 44/44/1 45/45/1 13/13/1 
f 13/13/1 45/45/1 46/46/1 14/14/1 
f 14/14/1 46/46/1 47/47/1 15/15/1 
f 15/15/1 47/47/1 48/48/1 16/16/1 
f 16/16/1 48/48/1 49/49/1 17/17/1 
f 17/17/1 49/49/1 50/50/1 18/18/1 
f 18/18/1 50/50/1 51/51/1 19/19/1 
f 19/19/1 51/51/1 52/52/1 20/20/1 
f 20/20/1 52/52/1 53/53/1 21/21/1 
f 21/21/1 53/53/1 54/54/1 22/22/1 
f 22/22/1 54/54/1 55/55/1 23/23/1 
f 23/23/1 55/55/1 56/56/1 24/24/1 
f 24/24/1 56/56/1 57/57/1 25/25/1 
f 25/25/1 57/57/1 58/58/1 26/26/1 
f 26/26/1 58/58/1 59/59/1 27/27/1 
f 27/27/1 59/59/1 60/60/1 28/28/1 
f 28/28/1 60/60/1 61/61/1 29/29/1 
f 29/29/1 61/61/1 62/62/1 30/30/1 
f 30/30/1 62/62/1 63/63/1 31/31/1 
f 31/31/1 63/63/1 64/64/1 32/32/1 
f 32/32/1 64/64/1 65/65/1 33/33/1 
f 33/33/1 65/65/1 34/34/1 2/2/1 
f 34/34/1 66/66/1 67/67/1 35/35/1 
f 35/35/1 67/67/1 68/68/1 36/36/1 
f 36/36/1 68/68/1 69/69/1 37/37/1 
f 37/37/1 69/69/1 70/70/1 38/38/1 
f 38/38/1 70/70/1 71/71/1 39/39/1 
f 39/39/1 71/71/1 72/72/1 40/40/1 
f 40/40/1 72/72/1 73/73/1 41/41/1 
f 41/41/1 73/73/1 74/74/1 42/42/1 
f 42/42/1 74/74/1 75/75/1 43/43/1 
f 43/43/1 75/75/1 76/76/1 44/44/1 
f 44/44/1 76/76/1 77/77/1 45/45/1 
f 45/45/1 77/77/1 78/78/1 46/46/1 
f 46/46/1 78/78/1 79/79/1 47/47/1 
f 47/47/1 79/79/1 80/80/1 48/48/1 
f 48/48/1 80/80/1 81/81/1 49/49/1 
f 49/49/1 81/81/1 82/82/1 50/50/1 
f 50/50/1 82/82/1 83/83/1 51/51/1 
f 51/51/1 83/83/1 84/84/1 52/52/1 
f 52/52/1 84/84/1 85/85/1 53/53/1 
f 53/53/1 85/85/1 86/86/1 54/54/1 
f 54/54/1 86/86/1 87/87/1 55/55/1 
f 55/55/1 87/87/1 88/88/1 56/56/1 
f 56/56/1 88/88/1 89/89/1 57/57/1 
f 57/57/1 89/89/1 90/90/1 58/58/1 
f 58/58/1 90/90/1 91/91/1 59/59/1 
f 59/59/1 91/91/1 92/92/1 60/60/1 
f 60/60/1 92/92/1 93/93/1 61/61/1 
f 61/61/1 93/93/1 94/94/1 62/62/1 
f 62/62/1 94/94/1 95/95/1 63/63/1 
f 63/63/1 95/95/1 96/96/1 64/64/1 
f 64/64/1 96/96/1 97/97/1 65/65/1 
f 65/65/1 97/97/1 66/66/1 34/34/1 
f 66/66/1 98/98/1 99/99/1 67/67/1 
f 67/67/1 99/99/1 100/100/1 68/68/1 
f 68/68/1 100/100/1 101/101/1 69/69/1 
f 69/69/1 101/101/1 102/102/1 70/70/1 
f 70/70/1 102/102/1 103/103/1 71/71/1 
f 71/71/1 103/103/1 104/104/1 72/72/1 
f 72/72/1 104/104/1 105/105/1 73/73/1 
f 73/73/1 105/105/1 106/106/1 74/74/1 
f 74/74/1 106/106/1 107/107/1 75/75/1 
f 75/75/1 107/107/1 108/108/1 76/76/1 
f 76/76/1 108/108/1 109/109/1 77/77/1 
f 77/77/1 109/109/1 110/110/1 78/78/1 
f 78/78/1 110/110/1 111/111/1 79/79/1 
f 79/79/1 111/111/1 112/112/1 80/80/1 
f 80/80/1 112/112/1 113/113/1 81/81/1 
f 81/81/1 113/113/1 114/114/1 82/82/1 
f 82/82/1 114/114/1 115/115/1 83/83/1 
f 83/83/1 115/115/1 116/116/1 84/84/1 
f 84/84/1 116/116/1 117/117/1 85/85/1 
f 85/85/1 117/117/1 118/118/1 86/86/1 
f 86/86/1 118/118/1 119/119/1 87/87/1 
f 87/87/1 119/119/1 120/120/1 88/88/1 
f 88/88/1 120/120/1 121/121/1 89/89/1 
f 89/89/1 121/121/1 122/122/1 90/90/1 
f 90/90/1 122/122/1 123/123/1 91/91/1 
f 91/91/1 123/123/1 124/124/1 92/92/1 
f 92/92/1 124/124/1 125/125/1 93/93/1 
f 93/93/1 125/125/1 126/126/1 94/94/1 
f 94/94/1 126/126/1 127/127/1 95/95/1 
f 95/95/1 127/127/1 128/128/1 96/96/1 
f 96/96/1 128/128/1 129/129/1 97/97/1 
f 97/97/1 129/129/1 98/98/1 66/66/1 
f 98/98/1 130/130/1 131/131/1 99/99/1 
f 99/99/1 131/131/1 132/132/1 100/100/1 
f 100/100/1 132/132/1 133/133/1 101/101/1 
f 101/101/1 133/133/1 134/134/1 102/102/1 
f 102/102/1 134/134/1 135/135/1 103/103/1 
f 103/103/1 135/135/1 136/136/1 104/104/1 
f 104/104/1 136/136/1 137/137/1 105/105/1 
f 105/105/1 137/137/1 138/138/1 106/106/1 
f 106/106/1 138/138/1 139/139/1 107/107/1 
f 107/107/1 139/139/1 140/140/1 108/108/1 
f 108/108/1 140/140/1 141/141/1 109/109/1 
f 109/109/1 141/141/1 142/142/1 110/110/1 
f 110/110/1 142/142/1 143/143/1 111/111/1 
f 111/111/1 143/143/1 144/144/1 112/112/1 
f 112/112/1 144/144/1 145/145/1 113/113/1 
f 113/113/1 145/145/1 146/146/1 114/114/1 
f 114/114/1 146/146/1 147/147/1 115/115/1 
f 115/115/1 147/147/1 148/148/1 116/116/1 
f 116/116/1 148/148/1 149/149/1 117/117/1 
f 117/117/1 149/149/1 150/150/1 118/118/1 
f 118/118/1 150/150/1 151/151/1 119/119/1 
f 119/119/1 151/151/1 152/152/1 120/120/1 
f 120/120/1 152/152/1 153/153/1 121/121/1 
f 121/121/1 153/153/1 154/154/1 122/122/1 
f 122/122/1 154/154/1 155/155/1 123/123/1 
f 123/123/1 155/155/1 156/156/1 124/124/1 
f 124/124/1 156/156/1 157/157/1 125/125/1 
f 125/125/1 157/157/1 158/158/1 126/126/1 
f 126/126/1 158/158/1 159/159/1 127/127/1 
f 127/127/1 159/159/1 160/160/1 128/128/1 
f 128/128/1 160/160/1 161/161/1 129/129/1 
f 129/129/1 161/161/1 130/130/1 98/98/1 
f 130/130/1 162/162/1 163/163/1 131/131/1 
f 131/131/1 163/163/1 164/164/1 132/132/1 
f 132/132/1 164/164/1 165/165/1 133/133/1 
f 133/133/1 165/165/1 166/166/1 134/134/1 
f 134/134/1 166/166/1 167/167/1 135/135/1 
f 135/135/1 167/167/1 168/168/1 136/136/1 
f 136/136/1 168/168/1 169/169/1 137/137/1 
f 137/137/1 169/169/1 170/170/1 138/138/1 
f 138/138/1 170/170/1 171/171/1 139/139/1 
f 139/139/1 171/171/1 172/172/1 140/140/1 
f 140/140/1 172/172/1 173/173/1 141/141/1 
f 141/141/1 173/173/1 174/174/1 142/142/1 
f 142/142/1 174/174/1 175/175/1 143/143/1 
f 143/143/1 175/175/1 176/176/1 144/144/1 
f 144/144/1 176/176/1 177/177/1 145/145/1 
f 145/145/1 177/177/1 178/178/1 146/146/1 
f 146/146/1 178/178/1 179/179/1 147/147/1 
f 147/147/1 179/179/1 180/180/1 148/148/1 
f 148/148/1 180/180/1 181/181/1 149/149/1 
f 149/149/1 181/181/1 182/182/1 150/150/1 
f 150/150/1 182/182/1 183/183/1 151/151/1 
f 151/151/1 183/183/1 184/184/1 152/152/1 
f 152/152/1 184/184/1 185/185/1 153/153/1 
f 153/153/1 185/185/1 186/186/1 154/154/1 
f 154/154/1 186/186/1 187/187/1 155/155/1 
f 155/155/1 187/187/1 188/188/1 156/156/1 
f 156/156/1 188/188/1 189/189/1 157/157/1 
f 157/157/1 189/189/1 190/190/1 158/158/1 
f 158/158/1 190/190/1 191/191/1 159/159/1 
f 159/159/1 191/191/1 192/192/1 160/160/1 
f 160/160/1 192/192/1 193/193/1 161/161/1 
f 161/161/1 193/193/1 162/162/1 130/130/1 
f 162/162/1 194/194/1 195/195/1 163/163/1 
f 163/163/1 195/195/1 196/196/1 164/164/1 
f 164/164/1 196/196/1 197/197/1 165/165/1 
f 165/165/1 197/197/1 198/198/1 166/166/1 
f 166/166/1 198/198/1 199/199/1 167/167/1 
f 167/167/1 199/199/1 200/200/1 168/168/1 
f 168/168/1 200/200/1 201/201/1 169/169/1 
f 169/169/1 201/201/1 202/202/1 170/170/1 
f 170/170/1 202/202/1 203/203/1 171/171/1 
f 171/171/1 203/203/1 204/204/1 172/172/1 
f 172/172/1 204/204/1 205/205/1 173/173/1 
f 173/173/1 205/205/1 206/206/1 174/174/1 
f 174/174/1 206/206/1 207/207/1 175/175/1 
f 175/175/1 207/207/1 208/208/1 176/176/1 
f 176/176/1 208/208/1 209/209/1 177/177/1 
f 177/177/1 209/209/1 210/210/1 178/178/1 
f 178/178/1 210/210/1 211/211/1 179/179/1 
f 179/179/1 211/211/1 212/212/1 180/180/1 
f 180/180/1 212/212/1 213/213/1 181/181/1 
f 181/181/1 213/213/1 214/214/1 182/182/1 
f 182/182/1 214/214/1 215/215/1 183/183/1 
f 183/183/1 215/215/1 216/216/1 184/184/1 
f 184/184/1 216/216/1 217/217/1 185/185/1 
f 185/185/1 217/217/1 218/218/1 186/186/1 
f 186/186/1 218/218/1 219/219/1 187/187/1 
f 187/187/1 219/219/1 220/220/1 188/188/1 
f 188/188/1 220/220/1 221/221/1 189/189/1 
f 189/189/1 221/221/1 222/222/1 190/190/1 
f 190/190/1 222/222/1 223/223/1 191/191/1 
f 191/191/1 223/223/1 224/224/1 192/192/1 
f 192/192/1 224/224/1 225/225/1 193/193/1 
f 193/193/1 225/225/1 194/194/1 162/162/1 
# 192 polygons - 32 triangles

