# 3ds Max Wavefront OBJ Exporter v0.97b - (c)2007 guruware
# File Created: 03.11.2019 20:07:00

mtllib VoidGeneral.mtl

#
# object VoidGeneral
#

v  3.5917 6.9172 3.5917
v  3.5917 6.9172 -3.5917
v  -3.5917 6.9172 -3.5917
v  -3.5917 6.9172 3.5917
v  25.1417 6.9172 3.5917
v  25.1417 6.9172 -3.5917
v  17.9583 6.9172 -3.5917
v  17.9583 6.9172 3.5917
v  10.7750 6.9172 -3.5917
v  10.7750 6.9172 3.5917
v  -25.1417 6.9172 -3.5917
v  -25.1417 6.9172 3.5917
v  -17.9583 6.9172 3.5917
v  -17.9583 6.9172 -3.5917
v  -10.7750 6.9172 3.5917
v  -10.7750 6.9172 -3.5917
v  3.5917 6.9172 -17.9583
v  3.5917 6.9172 -25.1417
v  -3.5917 6.9172 -25.1417
v  -3.5917 6.9172 -17.9583
v  3.5917 6.9172 -10.7750
v  -3.5917 6.9172 -10.7750
v  -3.5917 6.9172 17.9583
v  -3.5917 6.9172 25.1417
v  3.5917 6.9172 25.1417
v  3.5917 6.9172 17.9583
v  -3.5917 6.9172 10.7750
v  3.5917 6.9172 10.7750
v  25.1417 6.9172 -17.9583
v  25.1417 6.9172 -25.1417
v  17.9583 6.9172 -25.1417
v  17.9583 6.9172 -17.9583
v  25.1417 6.9172 -10.7750
v  17.9583 6.9172 -10.7750
v  17.9583 6.9172 17.9583
v  17.9583 6.9172 25.1417
v  25.1417 6.9172 25.1417
v  25.1417 6.9172 17.9583
v  17.9583 6.9172 10.7750
v  25.1417 6.9172 10.7750
v  10.7750 6.9172 -25.1417
v  10.7750 6.9172 -17.9583
v  10.7750 6.9172 -10.7750
v  10.7750 6.9172 17.9583
v  10.7750 6.9172 25.1417
v  10.7750 6.9172 10.7750
v  -25.1417 6.9172 17.9583
v  -25.1417 6.9172 25.1417
v  -17.9583 6.9172 25.1417
v  -17.9583 6.9172 17.9583
v  -25.1417 6.9172 10.7750
v  -17.9583 6.9172 10.7750
v  -17.9583 6.9172 -17.9583
v  -17.9583 6.9172 -25.1417
v  -25.1417 6.9172 -25.1417
v  -25.1417 6.9172 -17.9583
v  -17.9583 6.9172 -10.7750
v  -25.1417 6.9172 -10.7750
v  -10.7750 6.9172 25.1417
v  -10.7750 6.9172 17.9583
v  -10.7750 6.9172 10.7750
v  -10.7750 6.9172 -17.9583
v  -10.7750 6.9172 -25.1417
v  -10.7750 6.9172 -10.7750
# 64 vertices

vn 0.0000 1.0000 -0.0000
# 1 vertex normals

vt 0.5714 0.4286 0.0000
vt 0.5714 0.5714 0.0000
vt 0.4286 0.5714 0.0000
vt 0.4286 0.4286 0.0000
vt 1.0000 0.4286 0.0000
vt 1.0000 0.5714 0.0000
vt 0.8571 0.5714 0.0000
vt 0.8571 0.4286 0.0000
vt 0.7143 0.5714 0.0000
vt 0.7143 0.4286 0.0000
vt 0.0000 0.5714 0.0000
vt 0.0000 0.4286 0.0000
vt 0.1429 0.4286 0.0000
vt 0.1429 0.5714 0.0000
vt 0.2857 0.4286 0.0000
vt 0.2857 0.5714 0.0000
vt 0.5714 0.8571 0.0000
vt 0.5714 1.0000 0.0000
vt 0.4286 1.0000 0.0000
vt 0.4286 0.8571 0.0000
vt 0.5714 0.7143 0.0000
vt 0.4286 0.7143 0.0000
vt 0.4286 0.1429 0.0000
vt 0.4286 0.0000 0.0000
vt 0.5714 0.0000 0.0000
vt 0.5714 0.1429 0.0000
vt 0.4286 0.2857 0.0000
vt 0.5714 0.2857 0.0000
vt 1.0000 0.8571 0.0000
vt 1.0000 1.0000 0.0000
vt 0.8571 1.0000 0.0000
vt 0.8571 0.8571 0.0000
vt 1.0000 0.7143 0.0000
vt 0.8571 0.7143 0.0000
vt 0.8571 0.1429 0.0000
vt 0.8571 0.0000 0.0000
vt 1.0000 0.0000 0.0000
vt 1.0000 0.1429 0.0000
vt 0.8571 0.2857 0.0000
vt 1.0000 0.2857 0.0000
vt 0.7143 1.0000 0.0000
vt 0.7143 0.8571 0.0000
vt 0.7143 0.7143 0.0000
vt 0.7143 0.1429 0.0000
vt 0.7143 0.0000 0.0000
vt 0.7143 0.2857 0.0000
vt 0.0000 0.1429 0.0000
vt 0.0000 0.0000 0.0000
vt 0.1429 0.0000 0.0000
vt 0.1429 0.1429 0.0000
vt 0.0000 0.2857 0.0000
vt 0.1429 0.2857 0.0000
vt 0.1429 0.8571 0.0000
vt 0.1429 1.0000 0.0000
vt 0.0000 1.0000 0.0000
vt 0.0000 0.8571 0.0000
vt 0.1429 0.7143 0.0000
vt 0.0000 0.7143 0.0000
vt 0.2857 0.0000 0.0000
vt 0.2857 0.1429 0.0000
vt 0.2857 0.2857 0.0000
vt 0.2857 0.8571 0.0000
vt 0.2857 1.0000 0.0000
vt 0.2857 0.7143 0.0000
# 64 texture coords

o VoidGeneral
g VoidGeneral
usemtl wire_108008136
s 1
f 1/1/1 2/2/1 3/3/1 4/4/1 
f 5/5/1 6/6/1 7/7/1 8/8/1 
f 8/8/1 7/7/1 9/9/1 10/10/1 
f 10/10/1 9/9/1 2/2/1 1/1/1 
f 11/11/1 12/12/1 13/13/1 14/14/1 
f 14/14/1 13/13/1 15/15/1 16/16/1 
f 16/16/1 15/15/1 4/4/1 3/3/1 
f 17/17/1 18/18/1 19/19/1 20/20/1 
f 21/21/1 17/17/1 20/20/1 22/22/1 
f 2/2/1 21/21/1 22/22/1 3/3/1 
f 23/23/1 24/24/1 25/25/1 26/26/1 
f 27/27/1 23/23/1 26/26/1 28/28/1 
f 4/4/1 27/27/1 28/28/1 1/1/1 
f 29/29/1 30/30/1 31/31/1 32/32/1 
f 33/33/1 29/29/1 32/32/1 34/34/1 
f 6/6/1 33/33/1 34/34/1 7/7/1 
f 35/35/1 36/36/1 37/37/1 38/38/1 
f 39/39/1 35/35/1 38/38/1 40/40/1 
f 8/8/1 39/39/1 40/40/1 5/5/1 
f 32/32/1 31/31/1 41/41/1 42/42/1 
f 34/34/1 32/32/1 42/42/1 43/43/1 
f 7/7/1 34/34/1 43/43/1 9/9/1 
f 44/44/1 45/45/1 36/36/1 35/35/1 
f 46/46/1 44/44/1 35/35/1 39/39/1 
f 10/10/1 46/46/1 39/39/1 8/8/1 
f 42/42/1 41/41/1 18/18/1 17/17/1 
f 43/43/1 42/42/1 17/17/1 21/21/1 
f 9/9/1 43/43/1 21/21/1 2/2/1 
f 26/26/1 25/25/1 45/45/1 44/44/1 
f 28/28/1 26/26/1 44/44/1 46/46/1 
f 1/1/1 28/28/1 46/46/1 10/10/1 
f 47/47/1 48/48/1 49/49/1 50/50/1 
f 51/51/1 47/47/1 50/50/1 52/52/1 
f 12/12/1 51/51/1 52/52/1 13/13/1 
f 53/53/1 54/54/1 55/55/1 56/56/1 
f 57/57/1 53/53/1 56/56/1 58/58/1 
f 14/14/1 57/57/1 58/58/1 11/11/1 
f 50/50/1 49/49/1 59/59/1 60/60/1 
f 52/52/1 50/50/1 60/60/1 61/61/1 
f 13/13/1 52/52/1 61/61/1 15/15/1 
f 62/62/1 63/63/1 54/54/1 53/53/1 
f 64/64/1 62/62/1 53/53/1 57/57/1 
f 16/16/1 64/64/1 57/57/1 14/14/1 
f 60/60/1 59/59/1 24/24/1 23/23/1 
f 61/61/1 60/60/1 23/23/1 27/27/1 
f 15/15/1 61/61/1 27/27/1 4/4/1 
f 20/20/1 19/19/1 63/63/1 62/62/1 
f 22/22/1 20/20/1 62/62/1 64/64/1 
f 3/3/1 22/22/1 64/64/1 16/16/1 
# 49 polygons

